<mxfile host="app.diagrams.net" modified="2022-10-16T05:38:49.215Z" agent="5.0 (Windows NT 10.0; Win64; x64) AppleWebKit/537.36 (KHTML, like Gecko) Chrome/106.0.0.0 Safari/537.36" etag="hFfpv9JCrfIRv0U2x_zH" version="20.4.1" type="github">
  <diagram id="_2OJ0bwV5LaCm1acZaBd" name="페이지-1">
    <mxGraphModel dx="1163" dy="752" grid="1" gridSize="10" guides="1" tooltips="1" connect="1" arrows="1" fold="1" page="1" pageScale="1" pageWidth="827" pageHeight="1169" math="0" shadow="0">
      <root>
        <mxCell id="0" />
        <mxCell id="1" parent="0" />
        <mxCell id="EMu7VeOU3x1PXS24ighS-1" value="시작" style="rounded=0;whiteSpace=wrap;html=1;" parent="1" vertex="1">
          <mxGeometry x="60" y="80" width="70" height="40" as="geometry" />
        </mxCell>
        <mxCell id="EMu7VeOU3x1PXS24ighS-2" value="로그인" style="rounded=1;whiteSpace=wrap;html=1;" parent="1" vertex="1">
          <mxGeometry x="200" y="80" width="90" height="40" as="geometry" />
        </mxCell>
        <mxCell id="EMu7VeOU3x1PXS24ighS-3" value="" style="endArrow=classic;html=1;rounded=0;exitX=1;exitY=0.5;exitDx=0;exitDy=0;entryX=0;entryY=0.5;entryDx=0;entryDy=0;" parent="1" source="EMu7VeOU3x1PXS24ighS-1" target="EMu7VeOU3x1PXS24ighS-2" edge="1">
          <mxGeometry width="50" height="50" relative="1" as="geometry">
            <mxPoint x="380" y="260" as="sourcePoint" />
            <mxPoint x="430" y="210" as="targetPoint" />
          </mxGeometry>
        </mxCell>
        <mxCell id="XODCjB7SGtbEoyy86aNn-1" value="약관" style="rounded=1;whiteSpace=wrap;html=1;" vertex="1" parent="1">
          <mxGeometry x="350" y="80" width="90" height="40" as="geometry" />
        </mxCell>
        <mxCell id="XODCjB7SGtbEoyy86aNn-2" value="회원가입" style="rounded=1;whiteSpace=wrap;html=1;" vertex="1" parent="1">
          <mxGeometry x="490" y="80" width="90" height="40" as="geometry" />
        </mxCell>
        <mxCell id="XODCjB7SGtbEoyy86aNn-3" value="" style="endArrow=classic;html=1;rounded=0;exitX=1;exitY=0.5;exitDx=0;exitDy=0;entryX=0;entryY=0.5;entryDx=0;entryDy=0;" edge="1" parent="1" source="EMu7VeOU3x1PXS24ighS-2" target="XODCjB7SGtbEoyy86aNn-1">
          <mxGeometry width="50" height="50" relative="1" as="geometry">
            <mxPoint x="290" y="99.5" as="sourcePoint" />
            <mxPoint x="360" y="99.5" as="targetPoint" />
          </mxGeometry>
        </mxCell>
        <mxCell id="XODCjB7SGtbEoyy86aNn-4" value="" style="endArrow=classic;html=1;rounded=0;exitX=1;exitY=0.5;exitDx=0;exitDy=0;entryX=0;entryY=0.5;entryDx=0;entryDy=0;" edge="1" parent="1" source="XODCjB7SGtbEoyy86aNn-1" target="XODCjB7SGtbEoyy86aNn-2">
          <mxGeometry width="50" height="50" relative="1" as="geometry">
            <mxPoint x="500" y="170" as="sourcePoint" />
            <mxPoint x="560" y="170" as="targetPoint" />
          </mxGeometry>
        </mxCell>
        <mxCell id="XODCjB7SGtbEoyy86aNn-5" value="로그인" style="rounded=1;whiteSpace=wrap;html=1;" vertex="1" parent="1">
          <mxGeometry x="350" y="150" width="90" height="40" as="geometry" />
        </mxCell>
        <mxCell id="XODCjB7SGtbEoyy86aNn-6" value="사용자" style="shape=umlActor;verticalLabelPosition=bottom;verticalAlign=top;html=1;" vertex="1" parent="1">
          <mxGeometry x="10" y="360" width="30" height="60" as="geometry" />
        </mxCell>
        <mxCell id="XODCjB7SGtbEoyy86aNn-7" value="게시판 서비스" style="shape=umlFrame;whiteSpace=wrap;html=1;width=100;height=30;" vertex="1" parent="1">
          <mxGeometry x="170" y="260" width="550" height="490" as="geometry" />
        </mxCell>
        <mxCell id="XODCjB7SGtbEoyy86aNn-8" value="회원가입" style="rounded=1;whiteSpace=wrap;html=1;arcSize=40;fontColor=#000000;fillColor=#ffffc0;strokeColor=#ff0000;" vertex="1" parent="1">
          <mxGeometry x="200" y="320" width="120" height="40" as="geometry" />
        </mxCell>
        <mxCell id="XODCjB7SGtbEoyy86aNn-9" value="" style="edgeStyle=orthogonalEdgeStyle;html=1;verticalAlign=bottom;endArrow=open;endSize=8;strokeColor=#ff0000;rounded=0;" edge="1" source="XODCjB7SGtbEoyy86aNn-8" parent="1">
          <mxGeometry relative="1" as="geometry">
            <mxPoint x="410" y="430" as="targetPoint" />
          </mxGeometry>
        </mxCell>
      </root>
    </mxGraphModel>
  </diagram>
</mxfile>
